HIERARCHY
ROOT joint_Root
{
	OFFSET 0.0 0.0 0.0
	CHANNELS 6 Xposition Yposition Zposition Zrotation Xrotation Yrotation 
	JOINT Hips
	{
		OFFSET -17.1583 93.1646 452.98
		CHANNELS 6 Xposition Yposition Zposition Zrotation Xrotation Yrotation 
		JOINT Spine
		{
			OFFSET 15.7357 0.0 0.0
			CHANNELS 6 Xposition Yposition Zposition Zrotation Xrotation Yrotation 
			JOINT Chest
			{
				OFFSET 8.98455 -0.406207 0.0
				CHANNELS 6 Xposition Yposition Zposition Zrotation Xrotation Yrotation 
				JOINT Neck
				{
					OFFSET 16.3773 0.0 0.0
					CHANNELS 6 Xposition Yposition Zposition Zrotation Xrotation Yrotation 
					JOINT Head
					{
						OFFSET 6.45672 0.0 0.0
						CHANNELS 6 Xposition Yposition Zposition Zrotation Xrotation Yrotation 
						End Site
						{
							OFFSET 0.0 0.0 0.0
						}
					}
				}
				JOINT Shoulder_L
				{
					OFFSET 12.9942 -0.242716 4.98039
					CHANNELS 6 Xposition Yposition Zposition Zrotation Xrotation Yrotation 
					JOINT UpperArm_L
					{
						OFFSET 5.34809 0.0 0.0
						CHANNELS 6 Xposition Yposition Zposition Zrotation Xrotation Yrotation 
						JOINT LowerArm_L
						{
							OFFSET 24.3286 1.87007e-05 0.0
							CHANNELS 6 Xposition Yposition Zposition Zrotation Xrotation Yrotation 
							JOINT Hand_L
							{
								OFFSET 22.2916 0.0 0.0
								CHANNELS 6 Xposition Yposition Zposition Zrotation Xrotation Yrotation 
								End Site
								{
									OFFSET 0.0 0.0 0.0
								}
							}
						}
					}
				}
				JOINT Shoulder_R
				{
					OFFSET 12.9945 -0.242716 -4.98039
					CHANNELS 6 Xposition Yposition Zposition Zrotation Xrotation Yrotation 
					JOINT UpperArm_R
					{
						OFFSET -5.34813 0.0 0.0
						CHANNELS 6 Xposition Yposition Zposition Zrotation Xrotation Yrotation 
						JOINT LowerArm_R
						{
							OFFSET -24.3289 0.000322201 0.0
							CHANNELS 6 Xposition Yposition Zposition Zrotation Xrotation Yrotation 
							JOINT Hand_R
							{
								OFFSET -22.2915 -0.000108084 0.0
								CHANNELS 6 Xposition Yposition Zposition Zrotation Xrotation Yrotation 
								End Site
								{
									OFFSET 0.0 0.0 0.0
								}
							}
						}
					}
				}
			}
		}
		JOINT UpperLeg_L
		{
			OFFSET -2.19248 -6.46944 0.0
			CHANNELS 6 Xposition Yposition Zposition Zrotation Xrotation Yrotation 
			JOINT LowerLeg_L
			{
				OFFSET 39.0811 0.0 -1.23785e-05
				CHANNELS 6 Xposition Yposition Zposition Zrotation Xrotation Yrotation 
				JOINT Foot_L
				{
					OFFSET 40.9854 0.0 -1.26872e-05
					CHANNELS 6 Xposition Yposition Zposition Zrotation Xrotation Yrotation 
					JOINT Toes_L
					{
						OFFSET 11.7543 0.0 0.0
						CHANNELS 6 Xposition Yposition Zposition Zrotation Xrotation Yrotation 
						End Site
						{
							OFFSET 0.0 0.0 0.0
						}
					}
				}
			}
		}
		JOINT UpperLeg_R
		{
			OFFSET -2.19251 6.46944 0.0
			CHANNELS 6 Xposition Yposition Zposition Zrotation Xrotation Yrotation 
			JOINT LowerLeg_R
			{
				OFFSET -39.0811 -0.00228153 -0.0401928
				CHANNELS 6 Xposition Yposition Zposition Zrotation Xrotation Yrotation 
				JOINT Foot_R
				{
					OFFSET -40.9854 0.0 0.0
					CHANNELS 6 Xposition Yposition Zposition Zrotation Xrotation Yrotation 
					JOINT Toes_R
					{
						OFFSET -11.7543 0.0 0.0
						CHANNELS 6 Xposition Yposition Zposition Zrotation Xrotation Yrotation 
						End Site
						{
							OFFSET 0.0 0.0 0.0
						}
					}
				}
			}
		}
	}
}
MOTION
Frames:	7
Frame Time:	0.0333333
0.000000 0.000000 0.000000 0.000000 0.000000 -0.000000 -1.010520 92.852900 -0.421884 87.425500 -3.812040 4.459080 15.735700 0.000005 -0.000001 109.554000 85.901200 -108.812000 8.984550 -0.406207 -0.000000 -0.057537 2.692390 1.484650 16.377300 -0.000001 -0.000001 1.736050 1.195130 2.293700 6.456720 -0.000001 -0.000000 1.212850 1.367760 7.595390 12.994200 -0.242716 4.980390 -92.378300 7.078860 -71.374900 5.348090 -0.000007 -0.000001 -72.423000 6.594710 -4.103530 24.328600 0.000019 0.000005 4.653810 26.272900 -10.423600 22.291600 -0.000001 0.000005 -4.983170 5.084420 5.462980 12.994500 -0.242716 -4.980390 88.881700 4.263540 -75.288000 -5.348130 -0.000001 -0.000004 -73.191800 28.975500 -3.375750 -24.328900 0.000322 -0.000009 0.502737 1.988660 -14.217500 -22.291500 -0.000108 -0.000004 1.260800 5.263360 1.077240 -2.192480 -6.469440 -0.000000 -171.621000 -7.266360 1.909110 39.081100 -0.000007 -0.000012 -0.000580 0.001809 17.755500 40.985400 -0.000006 -0.000013 -1.286170 12.720200 -69.523700 11.754300 -0.000000 0.000003 -0.000970 0.182604 -9.169500 -2.192510 6.469440 -0.000001 177.881000 2.139720 -177.408000 -39.081100 -0.002282 -0.040193 0.041050 -0.145466 14.536600 -40.985400 0.000008 0.000006 -3.700300 8.508790 -68.690400 -11.754300 -0.000006 -0.000006 -0.010032 0.271544 -5.541230
0.000000 0.000000 0.000000 0.000000 0.000000 -0.000000 -1.014900 92.888600 -0.526896 87.512000 -3.718120 3.931220 15.735700 0.000005 -0.000001 109.824000 86.046500 -108.965000 8.984550 -0.406207 -0.000000 -0.346240 2.620110 1.726590 16.377300 -0.000001 -0.000001 1.235470 1.061320 2.928160 6.456720 -0.000001 -0.000000 0.749869 1.476930 8.973480 12.994200 -0.242716 4.980390 -92.370400 7.011260 -71.267300 5.348090 -0.000007 -0.000001 -70.836000 0.036362 -5.980920 24.328600 0.000019 0.000005 2.959050 30.195100 -5.872670 22.291600 -0.000001 0.000005 -9.845200 5.115340 4.745410 12.994500 -0.242716 -4.980390 88.854600 4.378000 -75.322500 -5.348130 -0.000001 -0.000004 -72.955400 28.058600 -3.347960 -24.328900 0.000322 -0.000009 0.322340 1.353050 -13.440100 -22.291500 -0.000108 -0.000004 1.600680 5.275790 0.741060 -2.192480 -6.469440 -0.000000 -171.774000 -7.360600 1.402320 39.081100 -0.000007 -0.000012 0.000555 -0.001760 17.507000 40.985400 -0.000006 -0.000013 -1.310280 12.825000 -69.390900 11.754300 -0.000000 0.000003 -0.000845 0.180813 -9.242300 -2.192510 6.469440 -0.000001 177.852000 2.087590 -177.935000 -39.081100 -0.002282 -0.040193 0.042877 -0.154232 14.381200 -40.985400 0.000008 0.000006 -3.657220 8.339480 -68.614000 -11.754300 -0.000006 -0.000006 -0.010096 0.272020 -5.521750
0.000000 0.000000 0.000000 0.000000 0.000000 -0.000000 -1.039790 92.932400 -0.593262 87.591200 -3.749930 3.437070 15.735700 0.000005 -0.000001 110.094000 86.194600 -109.062000 8.984550 -0.406207 -0.000000 -0.640181 2.538570 2.075980 16.377300 -0.000001 -0.000001 0.674115 0.980584 3.558790 6.456720 -0.000001 -0.000000 0.276482 1.598270 10.624900 12.994200 -0.242716 4.980390 -92.318600 6.762840 -71.025600 5.348090 -0.000007 -0.000001 -68.151300 -6.104330 -7.639380 24.328600 0.000019 0.000005 1.333360 34.027200 -2.384610 22.291600 -0.000001 0.000005 -15.866700 5.106400 4.982540 12.994500 -0.242716 -4.980390 88.819200 4.514070 -75.324100 -5.348130 -0.000001 -0.000004 -72.534300 27.094900 -3.250490 -24.328900 0.000322 -0.000009 0.245569 1.105890 -12.574100 -22.291500 -0.000108 -0.000004 1.905840 5.277020 0.707712 -2.192480 -6.469440 -0.000000 -171.878000 -7.569700 1.071980 39.081100 -0.000007 -0.000012 0.001013 -0.003292 17.111500 40.985400 -0.000006 -0.000013 -1.361630 12.964500 -69.285600 11.754300 -0.000000 0.000003 -0.000864 0.181081 -9.231410 -2.192510 6.469440 -0.000001 177.818000 1.959360 -178.394000 -39.081100 -0.002282 -0.040193 0.042054 -0.153332 14.173200 -40.985400 0.000008 0.000006 -3.802140 8.231980 -68.496100 -11.754300 -0.000006 -0.000006 -0.010520 0.275149 -5.393720
0.000000 0.000000 0.000000 0.000000 0.000000 -0.000000 -1.074110 92.960300 -0.641246 87.628700 -3.866100 2.854630 15.735700 0.000005 -0.000001 110.388000 86.355100 -109.110000 8.984550 -0.406207 -0.000000 -0.958831 2.441790 2.575400 16.377300 -0.000001 -0.000001 -0.007604 0.842100 4.310930 6.456720 -0.000001 -0.000000 -0.174895 1.769830 12.192700 12.994200 -0.242716 4.980390 -92.223700 6.360730 -70.684800 5.348090 -0.000007 -0.000001 -64.720400 -13.678200 -9.343820 24.328600 0.000019 0.000005 -0.000852 37.204900 -0.000005 22.291600 -0.000001 0.000005 -20.755300 5.001930 7.305140 12.994500 -0.242716 -4.980390 88.784500 4.649410 -75.331700 -5.348130 -0.000001 -0.000004 -71.940900 25.761800 -2.987650 -24.328900 0.000322 -0.000009 0.322866 1.534650 -11.920600 -22.291500 -0.000108 -0.000004 1.987360 5.268670 0.934219 -2.192480 -6.469440 -0.000000 -171.947000 -7.866910 0.609334 39.081100 -0.000007 -0.000012 0.001587 -0.005239 16.855400 40.985400 -0.000006 -0.000013 -1.411520 13.045800 -69.192200 11.754300 -0.000000 0.000003 -0.000725 0.179049 -9.313960 -2.192510 6.469440 -0.000001 177.862000 1.729970 -178.964000 -39.081100 -0.002282 -0.040193 0.043911 -0.162447 14.025400 -40.985400 0.000008 0.000006 -3.738680 8.094870 -68.422200 -11.754300 -0.000006 -0.000006 -0.010116 0.272172 -5.515530
0.000000 0.000000 0.000000 0.000000 0.000000 -0.000000 -1.118800 92.985900 -0.636986 87.687200 -3.944880 2.445860 15.735700 0.000005 -0.000001 110.298000 86.436900 -108.759000 8.984550 -0.406207 -0.000000 -1.112180 2.352380 3.098980 16.377300 -0.000001 -0.000001 -0.785405 0.712474 5.045090 6.456720 -0.000001 -0.000000 -0.675845 1.799350 13.894500 12.994200 -0.242716 4.980390 -92.035400 5.629040 -70.082900 5.348090 -0.000007 -0.000001 -61.090700 -22.878300 -11.879800 24.328600 0.000019 0.000005 -0.000020 41.559600 -0.000006 22.291600 -0.000001 0.000005 -21.911600 4.841440 10.515100 12.994500 -0.242716 -4.980390 88.764200 4.727040 -75.330400 -5.348130 -0.000001 -0.000004 -71.382700 24.218700 -2.470670 -24.328900 0.000322 -0.000009 0.403314 1.981780 -11.535000 -22.291500 -0.000108 -0.000004 2.240690 5.264330 1.050770 -2.192480 -6.469440 -0.000000 -172.024000 -7.993950 0.381343 39.081100 -0.000007 -0.000012 0.001920 -0.006466 16.543000 40.985400 -0.000006 -0.000013 -1.477800 13.064500 -69.165300 11.754300 -0.000000 0.000003 -0.000856 0.180968 -9.235980 -2.192510 6.469440 -0.000001 177.862000 1.613820 -179.306000 -39.081100 -0.002282 -0.040193 0.044646 -0.167281 13.872800 -40.985400 0.000008 0.000006 -3.700430 8.024370 -68.404800 -11.754300 -0.000006 -0.000006 -0.010366 0.274021 -5.439880
0.000000 0.000000 0.000000 0.000000 0.000000 -0.000000 -1.197460 93.005700 -0.604273 87.710400 -3.948510 1.993250 15.735700 0.000005 -0.000001 111.010000 86.533500 -109.171000 8.984550 -0.406207 -0.000000 -1.329060 2.339260 3.704570 16.377300 -0.000001 -0.000001 -1.566120 0.619294 5.528970 6.456720 -0.000001 -0.000000 -0.936049 1.547170 15.691100 12.994200 -0.242716 4.980390 -91.658300 4.415810 -69.391700 5.348090 -0.000007 -0.000001 -57.521300 -30.959500 -15.183500 24.328600 0.000019 0.000005 0.000053 43.306600 -0.000006 22.291600 -0.000001 0.000005 -18.400300 4.675540 13.552200 12.994500 -0.242716 -4.980390 88.777600 4.653340 -75.263600 -5.348130 -0.000001 -0.000004 -70.925300 22.402900 -1.622550 -24.328900 0.000322 -0.000009 0.554727 2.734360 -11.493600 -22.291500 -0.000108 -0.000004 2.489230 5.256880 1.249900 -2.192480 -6.469440 -0.000000 -172.058000 -8.074190 0.089809 39.081100 -0.000007 -0.000012 0.002701 -0.009254 16.275000 40.985400 -0.000006 -0.000013 -1.560800 13.056000 -69.129500 11.754300 -0.000000 0.000003 -0.000842 0.180767 -9.244150 -2.192510 6.469440 -0.000001 177.917000 1.677280 -179.652000 -39.081100 -0.002282 -0.040193 0.046093 -0.175381 13.702100 -40.985400 0.000008 0.000006 -3.515160 8.021430 -68.417900 -11.754300 -0.000006 -0.000006 -0.010404 0.274297 -5.428590
0.000000 0.000000 0.000000 0.000000 0.000000 -0.000000 -1.283280 93.032100 -0.543829 87.747200 -3.861350 1.603350 15.735700 0.000005 -0.000001 112.242000 86.648400 -110.059000 8.984550 -0.406207 -0.000000 -1.603080 2.358320 4.399450 16.377300 -0.000001 -0.000001 -2.093810 0.557260 5.893420 6.456720 -0.000001 -0.000000 -1.026830 1.316730 16.844500 12.994200 -0.242716 4.980390 -91.215500 3.128660 -68.754200 5.348090 -0.000007 -0.000001 -54.117800 -38.356000 -19.758500 24.328600 0.000019 0.000005 -0.000151 40.451200 -0.000005 22.291600 -0.000001 0.000005 -11.769700 4.513250 16.335800 12.994500 -0.242716 -4.980390 88.798300 4.524720 -75.109700 -5.348130 -0.000001 -0.000004 -70.351100 20.758400 -0.566318 -24.328900 0.000322 -0.000009 0.680064 3.282020 -11.730700 -22.291500 -0.000108 -0.000004 2.569440 5.249830 1.437350 -2.192480 -6.469440 -0.000000 -172.078000 -8.110390 -0.070688 39.081100 -0.000007 -0.000012 0.003356 -0.011792 15.887300 40.985400 -0.000006 -0.000013 -1.650300 13.154200 -69.089000 11.754300 -0.000000 0.000003 -0.000670 0.178225 -9.347470 -2.192510 6.469440 -0.000001 177.930000 1.847820 -179.870000 -39.081100 -0.002282 -0.040193 0.044632 -0.172458 13.467200 -40.985400 0.000008 0.000006 -3.524980 8.107000 -68.377200 -11.754300 -0.000006 -0.000006 -0.010413 0.274366 -5.425780
